<mxfile host="Electron" modified="2023-04-06T07:35:16.641Z" agent="Mozilla/5.0 (Windows NT 10.0; Win64; x64) AppleWebKit/537.36 (KHTML, like Gecko) draw.io/21.1.2 Chrome/106.0.5249.199 Electron/21.4.3 Safari/537.36" etag="7kdN-rFxACSnbhnMoWqs" version="21.1.2" type="device">
  <diagram id="R2lEEEUBdFMjLlhIrx00" name="Page-1">
    <mxGraphModel dx="2482" dy="786" grid="1" gridSize="10" guides="1" tooltips="1" connect="1" arrows="1" fold="1" page="1" pageScale="1" pageWidth="1169" pageHeight="827" math="0" shadow="0" extFonts="Permanent Marker^https://fonts.googleapis.com/css?family=Permanent+Marker">
      <root>
        <mxCell id="0" />
        <mxCell id="1" parent="0" />
        <mxCell id="BJE4poexc7ONUmwEAUl5-11" value="Student" style="whiteSpace=wrap;html=1;align=center;" vertex="1" parent="1">
          <mxGeometry x="120" y="190" width="100" height="40" as="geometry" />
        </mxCell>
        <mxCell id="BJE4poexc7ONUmwEAUl5-17" value="Bill" style="whiteSpace=wrap;html=1;align=center;" vertex="1" parent="1">
          <mxGeometry x="620" y="190" width="100" height="40" as="geometry" />
        </mxCell>
        <mxCell id="BJE4poexc7ONUmwEAUl5-18" value="name" style="ellipse;whiteSpace=wrap;html=1;align=center;" vertex="1" parent="1">
          <mxGeometry y="130" width="100" height="40" as="geometry" />
        </mxCell>
        <mxCell id="BJE4poexc7ONUmwEAUl5-19" value="id" style="ellipse;whiteSpace=wrap;html=1;align=center;fontStyle=4;" vertex="1" parent="1">
          <mxGeometry x="-40" y="190" width="100" height="40" as="geometry" />
        </mxCell>
        <mxCell id="BJE4poexc7ONUmwEAUl5-20" value="semester" style="ellipse;whiteSpace=wrap;html=1;align=center;" vertex="1" parent="1">
          <mxGeometry y="260" width="100" height="40" as="geometry" />
        </mxCell>
        <mxCell id="BJE4poexc7ONUmwEAUl5-21" value="fee" style="ellipse;whiteSpace=wrap;html=1;align=center;" vertex="1" parent="1">
          <mxGeometry x="120" y="90" width="100" height="40" as="geometry" />
        </mxCell>
        <mxCell id="BJE4poexc7ONUmwEAUl5-26" style="edgeStyle=orthogonalEdgeStyle;rounded=0;orthogonalLoop=1;jettySize=auto;html=1;entryX=0.5;entryY=1;entryDx=0;entryDy=0;endArrow=none;endFill=0;" edge="1" parent="1" source="BJE4poexc7ONUmwEAUl5-22" target="BJE4poexc7ONUmwEAUl5-11">
          <mxGeometry relative="1" as="geometry" />
        </mxCell>
        <mxCell id="BJE4poexc7ONUmwEAUl5-22" value="phone" style="ellipse;shape=doubleEllipse;margin=3;whiteSpace=wrap;html=1;align=center;" vertex="1" parent="1">
          <mxGeometry x="120" y="280" width="100" height="40" as="geometry" />
        </mxCell>
        <mxCell id="BJE4poexc7ONUmwEAUl5-27" value="" style="endArrow=none;html=1;rounded=0;exitX=0.5;exitY=0;exitDx=0;exitDy=0;entryX=0.25;entryY=1;entryDx=0;entryDy=0;" edge="1" parent="1" source="BJE4poexc7ONUmwEAUl5-20" target="BJE4poexc7ONUmwEAUl5-11">
          <mxGeometry relative="1" as="geometry">
            <mxPoint x="50" y="240" as="sourcePoint" />
            <mxPoint x="210" y="240" as="targetPoint" />
          </mxGeometry>
        </mxCell>
        <mxCell id="BJE4poexc7ONUmwEAUl5-28" value="" style="endArrow=none;html=1;rounded=0;exitX=1;exitY=0.5;exitDx=0;exitDy=0;entryX=0;entryY=0.5;entryDx=0;entryDy=0;" edge="1" parent="1" source="BJE4poexc7ONUmwEAUl5-19" target="BJE4poexc7ONUmwEAUl5-11">
          <mxGeometry relative="1" as="geometry">
            <mxPoint x="60" y="200" as="sourcePoint" />
            <mxPoint x="155" y="170" as="targetPoint" />
          </mxGeometry>
        </mxCell>
        <mxCell id="BJE4poexc7ONUmwEAUl5-29" value="" style="endArrow=none;html=1;rounded=0;exitX=1;exitY=0.5;exitDx=0;exitDy=0;entryX=0.25;entryY=0;entryDx=0;entryDy=0;" edge="1" parent="1" source="BJE4poexc7ONUmwEAUl5-18" target="BJE4poexc7ONUmwEAUl5-11">
          <mxGeometry relative="1" as="geometry">
            <mxPoint x="70" y="220" as="sourcePoint" />
            <mxPoint x="130" y="220" as="targetPoint" />
          </mxGeometry>
        </mxCell>
        <mxCell id="BJE4poexc7ONUmwEAUl5-30" value="" style="endArrow=none;html=1;rounded=0;exitX=0.5;exitY=1;exitDx=0;exitDy=0;entryX=0.5;entryY=0;entryDx=0;entryDy=0;" edge="1" parent="1" source="BJE4poexc7ONUmwEAUl5-21" target="BJE4poexc7ONUmwEAUl5-11">
          <mxGeometry relative="1" as="geometry">
            <mxPoint x="80" y="230" as="sourcePoint" />
            <mxPoint x="140" y="230" as="targetPoint" />
          </mxGeometry>
        </mxCell>
        <mxCell id="BJE4poexc7ONUmwEAUl5-31" value="Account Staff" style="whiteSpace=wrap;html=1;align=center;" vertex="1" parent="1">
          <mxGeometry x="900" y="190" width="100" height="40" as="geometry" />
        </mxCell>
        <mxCell id="BJE4poexc7ONUmwEAUl5-32" value="name" style="ellipse;whiteSpace=wrap;html=1;align=center;" vertex="1" parent="1">
          <mxGeometry x="1060" y="130" width="100" height="40" as="geometry" />
        </mxCell>
        <mxCell id="BJE4poexc7ONUmwEAUl5-33" value="id" style="ellipse;whiteSpace=wrap;html=1;align=center;fontStyle=4;" vertex="1" parent="1">
          <mxGeometry x="1080" y="190" width="100" height="40" as="geometry" />
        </mxCell>
        <mxCell id="BJE4poexc7ONUmwEAUl5-37" value="phone" style="ellipse;shape=doubleEllipse;margin=3;whiteSpace=wrap;html=1;align=center;" vertex="1" parent="1">
          <mxGeometry x="1060" y="250" width="100" height="40" as="geometry" />
        </mxCell>
        <mxCell id="BJE4poexc7ONUmwEAUl5-39" value="" style="endArrow=none;html=1;rounded=0;exitX=0;exitY=0.5;exitDx=0;exitDy=0;" edge="1" parent="1" source="BJE4poexc7ONUmwEAUl5-33">
          <mxGeometry relative="1" as="geometry">
            <mxPoint x="840" y="200" as="sourcePoint" />
            <mxPoint x="1000" y="210" as="targetPoint" />
          </mxGeometry>
        </mxCell>
        <mxCell id="BJE4poexc7ONUmwEAUl5-40" value="" style="endArrow=none;html=1;rounded=0;entryX=1;entryY=0;entryDx=0;entryDy=0;exitX=0;exitY=1;exitDx=0;exitDy=0;" edge="1" parent="1" source="BJE4poexc7ONUmwEAUl5-32" target="BJE4poexc7ONUmwEAUl5-31">
          <mxGeometry relative="1" as="geometry">
            <mxPoint x="1090" y="170" as="sourcePoint" />
            <mxPoint x="910" y="220" as="targetPoint" />
            <Array as="points" />
          </mxGeometry>
        </mxCell>
        <mxCell id="BJE4poexc7ONUmwEAUl5-42" value="" style="endArrow=none;html=1;rounded=0;entryX=1;entryY=1;entryDx=0;entryDy=0;exitX=-0.009;exitY=0.412;exitDx=0;exitDy=0;exitPerimeter=0;" edge="1" parent="1" source="BJE4poexc7ONUmwEAUl5-37" target="BJE4poexc7ONUmwEAUl5-31">
          <mxGeometry relative="1" as="geometry">
            <mxPoint x="1085" y="174" as="sourcePoint" />
            <mxPoint x="1010" y="200" as="targetPoint" />
            <Array as="points" />
          </mxGeometry>
        </mxCell>
        <mxCell id="BJE4poexc7ONUmwEAUl5-43" value="bill_num" style="ellipse;whiteSpace=wrap;html=1;align=center;" vertex="1" parent="1">
          <mxGeometry x="560" y="80" width="100" height="40" as="geometry" />
        </mxCell>
        <mxCell id="BJE4poexc7ONUmwEAUl5-44" value="id" style="ellipse;whiteSpace=wrap;html=1;align=center;fontStyle=4;" vertex="1" parent="1">
          <mxGeometry x="700" y="80" width="100" height="40" as="geometry" />
        </mxCell>
        <mxCell id="BJE4poexc7ONUmwEAUl5-45" value="" style="endArrow=none;html=1;rounded=0;entryX=0.667;entryY=0.021;entryDx=0;entryDy=0;entryPerimeter=0;exitX=0.5;exitY=1;exitDx=0;exitDy=0;" edge="1" parent="1" source="BJE4poexc7ONUmwEAUl5-44" target="BJE4poexc7ONUmwEAUl5-17">
          <mxGeometry relative="1" as="geometry">
            <mxPoint x="755" y="120" as="sourcePoint" />
            <mxPoint x="680" y="146" as="targetPoint" />
            <Array as="points" />
          </mxGeometry>
        </mxCell>
        <mxCell id="BJE4poexc7ONUmwEAUl5-46" value="" style="endArrow=none;html=1;rounded=0;entryX=0.5;entryY=1;entryDx=0;entryDy=0;exitX=0.25;exitY=0;exitDx=0;exitDy=0;" edge="1" parent="1" source="BJE4poexc7ONUmwEAUl5-17" target="BJE4poexc7ONUmwEAUl5-43">
          <mxGeometry relative="1" as="geometry">
            <mxPoint x="760" y="130" as="sourcePoint" />
            <mxPoint x="697" y="201" as="targetPoint" />
            <Array as="points" />
          </mxGeometry>
        </mxCell>
        <mxCell id="BJE4poexc7ONUmwEAUl5-47" value="Payment" style="whiteSpace=wrap;html=1;align=center;" vertex="1" parent="1">
          <mxGeometry x="630" y="414" width="100" height="40" as="geometry" />
        </mxCell>
        <mxCell id="BJE4poexc7ONUmwEAUl5-48" value="date" style="ellipse;whiteSpace=wrap;html=1;align=center;" vertex="1" parent="1">
          <mxGeometry x="550" y="524" width="100" height="40" as="geometry" />
        </mxCell>
        <mxCell id="BJE4poexc7ONUmwEAUl5-49" value="id" style="ellipse;whiteSpace=wrap;html=1;align=center;fontStyle=4;" vertex="1" parent="1">
          <mxGeometry x="670" y="524" width="100" height="40" as="geometry" />
        </mxCell>
        <mxCell id="BJE4poexc7ONUmwEAUl5-50" value="" style="endArrow=none;html=1;rounded=0;exitX=0.409;exitY=0.03;exitDx=0;exitDy=0;entryX=0.5;entryY=1;entryDx=0;entryDy=0;exitPerimeter=0;" edge="1" parent="1" source="BJE4poexc7ONUmwEAUl5-49" target="BJE4poexc7ONUmwEAUl5-47">
          <mxGeometry relative="1" as="geometry">
            <mxPoint x="765" y="344" as="sourcePoint" />
            <mxPoint x="690" y="454" as="targetPoint" />
            <Array as="points" />
          </mxGeometry>
        </mxCell>
        <mxCell id="BJE4poexc7ONUmwEAUl5-51" value="" style="endArrow=none;html=1;rounded=0;entryX=0.5;entryY=0;entryDx=0;entryDy=0;exitX=0.25;exitY=1;exitDx=0;exitDy=0;" edge="1" parent="1" source="BJE4poexc7ONUmwEAUl5-47" target="BJE4poexc7ONUmwEAUl5-48">
          <mxGeometry relative="1" as="geometry">
            <mxPoint x="770" y="354" as="sourcePoint" />
            <mxPoint x="707" y="425" as="targetPoint" />
            <Array as="points" />
          </mxGeometry>
        </mxCell>
        <mxCell id="BJE4poexc7ONUmwEAUl5-52" value="amount" style="ellipse;whiteSpace=wrap;html=1;align=center;" vertex="1" parent="1">
          <mxGeometry x="790" y="524" width="100" height="40" as="geometry" />
        </mxCell>
      </root>
    </mxGraphModel>
  </diagram>
</mxfile>
